<?xml version="1.0" encoding="UTF-8"?>
<!DOCTYPE svg PUBLIC "-//W3C//DTD SVG 1.1//EN" "http://www.w3.org/Graphics/SVG/1.1/DTD/svg11.dtd">
<!-- Creator: CorelDRAW 2020 (64-Bit) -->
<svg xmlns="http://www.w3.org/2000/svg" xml:space="preserve" width="119px" height="26px" version="1.1" style="shape-rendering:geometricPrecision; text-rendering:geometricPrecision; image-rendering:optimizeQuality; fill-rule:evenodd; clip-rule:evenodd"
viewBox="0 0 9.847 2.172"
 xmlns:xlink="http://www.w3.org/1999/xlink"
 xmlns:xodm="http://www.corel.com/coreldraw/odm/2003">
 <defs>
  <style type="text/css">
   <![CDATA[
    .fil1 {fill:#671ABF}
    .fil0 {fill:#671ABF;fill-rule:nonzero}
   ]]>
  </style>
 </defs>
 <g id="Слой_x0020_1">
  <metadata id="CorelCorpID_0Corel-Layer"/>
  <g id="_2112961618832">
   <path class="fil0" d="M0.28 0.605l0 -0.058c0,-0.074 0.015,-0.145 0.043,-0.211 0.057,-0.134 0.156,-0.234 0.289,-0.292 0.067,-0.03 0.138,-0.044 0.213,-0.044 0.053,0 0.097,0.018 0.132,0.053 0.036,0.036 0.053,0.08 0.053,0.133 0,0.049 -0.018,0.094 -0.053,0.129 -0.017,0.016 -0.037,0.028 -0.059,0.037 -0.023,0.01 -0.047,0.015 -0.073,0.015l-0.008 0c-0.025,0 -0.047,0.007 -0.068,0.017 -0.064,0.033 -0.102,0.098 -0.102,0.169l0 0.052 0.124 0c0.024,0.001 0.046,0.006 0.067,0.015 0.023,0.009 0.042,0.022 0.059,0.039 0.016,0.016 0.029,0.035 0.039,0.057 0.009,0.023 0.014,0.047 0.014,0.073 0,0.026 -0.005,0.051 -0.014,0.073 -0.01,0.023 -0.023,0.043 -0.039,0.059 -0.017,0.016 -0.036,0.029 -0.059,0.039 -0.023,0.01 -0.047,0.015 -0.073,0.015l-0.118 0 0 0.203 0 0 0 0.808c0,0.049 -0.019,0.098 -0.054,0.132 -0.034,0.034 -0.08,0.054 -0.128,0.054 -0.049,0 -0.096,-0.02 -0.131,-0.054 -0.035,-0.034 -0.054,-0.083 -0.054,-0.132l0.002 -0.801 0 0 0 -0.05 0 0 0 -0.029 0 0 0 -0.063 0 0 0 -0.068 -0.009 0 0 0 -0.088 0c-0.025,0 -0.049,-0.005 -0.071,-0.015 -0.023,-0.01 -0.043,-0.023 -0.06,-0.04 -0.017,-0.017 -0.03,-0.037 -0.039,-0.06 -0.01,-0.022 -0.015,-0.046 -0.015,-0.071 0,-0.026 0.005,-0.05 0.015,-0.073 0.009,-0.022 0.022,-0.041 0.039,-0.057 0.017,-0.017 0.037,-0.03 0.06,-0.039 0.021,-0.009 0.043,-0.014 0.065,-0.015l0.101 0z"/>
   <path class="fil1" d="M1.912 0.605c0.019,-0.001 0.134,0 0.189,0.015 0.08,0.016 0.142,0.085 0.146,0.171 0.004,0.101 -0.073,0.186 -0.173,0.19 -0.007,0 -0.014,0 -0.022,0 0,0.001 -0.108,-0.011 -0.124,-0.01 -0.23,0.01 -0.408,0.205 -0.398,0.435 0.01,0.23 0.205,0.409 0.435,0.399 0.23,-0.01 0.408,-0.205 0.398,-0.435 -0.001,-0.016 -0.016,-0.111 -0.049,-0.181 -0.011,-0.025 -0.022,-0.052 -0.023,-0.081 -0.01,-0.141 0.101,-0.199 0.173,-0.2 0.072,-0.001 0.124,0.036 0.158,0.083 0.098,0.155 0.106,0.345 0.107,0.363 0.024,0.437 -0.316,0.798 -0.748,0.817 -0.433,0.019 -0.798,-0.317 -0.817,-0.749 -0.019,-0.432 0.316,-0.798 0.748,-0.817z"/>
   <path class="fil0" d="M6.294 1.379c0,0.11 -0.021,0.213 -0.062,0.309 -0.084,0.191 -0.23,0.339 -0.42,0.422 -0.095,0.041 -0.196,0.062 -0.305,0.062 -0.108,0 -0.21,-0.021 -0.306,-0.062 -0.19,-0.083 -0.336,-0.231 -0.417,-0.422 -0.041,-0.096 -0.061,-0.199 -0.061,-0.309 0,-0.108 0.02,-0.211 0.061,-0.307 0.032,-0.077 0.074,-0.146 0.125,-0.207l0 0c0.116,-0.14 0.289,-0.242 0.449,-0.26 0.103,-0.012 0.205,-0.013 0.304,0.021 0.052,0.018 0.084,0.042 0.111,0.086 0.024,0.04 0.025,0.089 0.012,0.14 -0.006,0.026 -0.017,0.048 -0.031,0.067 -0.029,0.039 -0.067,0.061 -0.112,0.068 -0.025,0.003 -0.047,0.001 -0.071,-0.006 -0.056,-0.017 -0.141,-0.016 -0.197,-0.004 -0.064,0.013 -0.1,0.041 -0.148,0.079 -0.047,0.042 -0.085,0.095 -0.111,0.157 -0.022,0.052 -0.033,0.108 -0.033,0.166 0,0.06 0.011,0.116 0.033,0.168 0.044,0.106 0.122,0.183 0.226,0.229 0.052,0.022 0.108,0.033 0.166,0.033 0.059,0 0.114,-0.011 0.166,-0.033 0.104,-0.046 0.183,-0.124 0.229,-0.229 0.02,-0.047 0.031,-0.098 0.033,-0.152l0.001 0 0 -0.376 0 0 0 -0.347 -0.001 0 0 -0.439c0,-0.027 0.004,-0.051 0.013,-0.074 0.016,-0.046 0.046,-0.078 0.09,-0.099 0.022,-0.01 0.046,-0.015 0.072,-0.015 0.026,0 0.05,0.005 0.072,0.015 0.045,0.021 0.077,0.054 0.097,0.099 0.01,0.023 0.015,0.047 0.015,0.074l0 1.146z"/>
   <path class="fil1" d="M3.692 0.605c0.019,-0.001 0.134,0 0.189,0.015 0.08,0.016 0.142,0.085 0.146,0.171 0.004,0.101 -0.073,0.186 -0.173,0.19 -0.007,0 -0.015,0 -0.022,0 0,0.001 -0.109,-0.011 -0.124,-0.01 -0.23,0.01 -0.408,0.205 -0.398,0.435 0.01,0.23 0.204,0.409 0.435,0.399 0.23,-0.01 0.408,-0.205 0.398,-0.435 -0.001,-0.016 -0.016,-0.111 -0.049,-0.181 -0.011,-0.025 -0.022,-0.052 -0.023,-0.081 -0.01,-0.141 0.101,-0.199 0.173,-0.2 0.072,-0.001 0.123,0.036 0.158,0.083 0.098,0.155 0.106,0.345 0.107,0.363 0.023,0.437 -0.316,0.798 -0.749,0.817 -0.432,0.019 -0.797,-0.317 -0.816,-0.749 -0.019,-0.432 0.316,-0.798 0.748,-0.817z"/>
   <path class="fil1" d="M7.175 0.613c0.425,-0.064 0.821,0.226 0.889,0.648 0.004,0.014 0.007,0.029 0.007,0.044 0,0.087 -0.073,0.158 -0.161,0.158l-0.735 0c-0.089,0 -0.161,-0.071 -0.161,-0.158 0,-0.087 0.072,-0.158 0.161,-0.158l0.457 0c-0.088,-0.125 -0.241,-0.196 -0.403,-0.172 -0.228,0.034 -0.385,0.246 -0.351,0.474 0.034,0.228 0.247,0.385 0.475,0.351 0.015,-0.003 0.108,-0.028 0.174,-0.068 0.024,-0.014 0.05,-0.027 0.078,-0.032 0.139,-0.024 0.209,0.08 0.217,0.152 0.009,0.071 -0.022,0.126 -0.066,0.166 -0.143,0.113 -0.332,0.141 -0.349,0.144 -0.432,0.069 -0.827,-0.231 -0.891,-0.659 -0.064,-0.428 0.231,-0.827 0.659,-0.89z"/>
   <path class="fil1" d="M8.952 0.613c0.424,-0.064 0.82,0.226 0.889,0.648 0.004,0.014 0.006,0.029 0.006,0.044 0,0.087 -0.072,0.158 -0.161,0.158l-0.734 0c-0.089,0 -0.161,-0.071 -0.161,-0.158 0,-0.087 0.072,-0.158 0.161,-0.158l0.457 0c-0.088,-0.125 -0.242,-0.196 -0.403,-0.172 -0.228,0.034 -0.385,0.246 -0.351,0.474 0.034,0.228 0.246,0.385 0.474,0.351 0.016,-0.003 0.109,-0.028 0.174,-0.068 0.025,-0.014 0.051,-0.027 0.079,-0.032 0.139,-0.024 0.208,0.08 0.217,0.152 0.008,0.071 -0.023,0.126 -0.067,0.166 -0.143,0.113 -0.331,0.141 -0.349,0.144 -0.432,0.069 -0.827,-0.231 -0.891,-0.659 -0.064,-0.428 0.232,-0.827 0.66,-0.89z"/>
  </g>
 </g>
</svg>
